# xmcd
#
# Track frame offsets: 
#        150
#        17096
#        30797
#        47231
#        71173
#        93147
#        104094
#        126808
#        142325
#        164696
#        186733
#
# Disc length: 2886 seconds
#
# Revision: 1
# Processed by: cddbd v1.5.1PL0 Copyright (c) Steve Scherf et al.
# Submitted via: ExactAudioCopy v0.95a5
#
DISCID=a40b440b
DTITLE=Stoni - Retroblue
DYEAR=1900
DGENRE=Blues
TTITLE0=Az én városom
TTITLE1=Sánta indián...
TTITLE2=Hungary
TTITLE3=Naplementetánc
TTITLE4=Égre néz az ember
TTITLE5=Feel allright
TTITLE6=Birdland - Kalitka
TTITLE7=Csak csoda segíthet
TTITLE8=Didergõ
TTITLE9=Granada Highway
TTITLE10=Sánta indián... II.
EXTD=
EXTT0=
EXTT1=
EXTT2=
EXTT3=
EXTT4=
EXTT5=
EXTT6=
EXTT7=
EXTT8=
EXTT9=
EXTT10=
PLAYORDER=
